<svg width="38" height="38" viewBox="0 0 38 38" fill="none" xmlns="http://www.w3.org/2000/svg">
<path d="M9.5652 3.27536L4.84781 9.56522V31.5797C4.84781 32.4138 5.17915 33.2137 5.76894 33.8035C6.35873 34.3933 7.15865 34.7246 7.99274 34.7246H30.0072C30.8413 34.7246 31.6412 34.3933 32.231 33.8035C32.8208 33.2137 33.1522 32.4138 33.1522 31.5797V9.56522L28.4348 3.27536H9.5652Z" stroke="white" stroke-width="3" stroke-linecap="round" stroke-linejoin="round"/>
<path d="M4.84781 9.56522H33.1522" stroke="white" stroke-width="3" stroke-linecap="round" stroke-linejoin="round"/>
<path d="M25.2899 15.8551C25.2899 17.5232 24.6272 19.1231 23.4476 20.3027C22.268 21.4822 20.6682 22.1449 19 22.1449C17.3318 22.1449 15.732 21.4822 14.5524 20.3027C13.3728 19.1231 12.7101 17.5232 12.7101 15.8551" stroke="white" stroke-width="3" stroke-linecap="round" stroke-linejoin="round"/>
</svg>
